<svg xmlns="http://www.w3.org/2000/svg" viewBox="0 0 512 512">
  <path d="M256 0c-37.43 0-67.89 30.56-67.89 68.1v10.77c-64.19 27.05-109.44 91.26-109.44 165.97v99.93L28.8 422.62a17.66 17.66 0 00-.64 17.96 17.55 17.55 0 0015.4 9.18h131.92C184.6 485.51 216.98 512 255.4 512h1.18c38.43 0 70.8-26.5 79.94-62.24h131.91c6.43 0 12.34-3.52 15.4-9.17a17.64 17.64 0 00-.63-17.97l-49.88-77.85v-99.93c0-74.71-45.25-138.91-109.44-165.97V68.11C323.9 30.56 293.43 0 256 0zm0 35.23a32.87 32.87 0 0132.78 32.88v.15a175.33 175.33 0 00-65.55 0v-.15A32.87 32.87 0 01256 35.23zm0 65.17c78.42 0 142.21 64.8 142.21 144.44v105.1c0 3.38.97 6.69 2.79 9.53l35.28 55.06H75.71L111 359.47a17.65 17.65 0 002.8-9.52v-105.1c0-79.65 63.8-144.45 142.21-144.45zm-43.33 349.36h86.66a47.45 47.45 0 01-42.74 27.01h-1.18a47.45 47.45 0 01-42.74-27z"/>
</svg>