<svg xmlns="http://www.w3.org/2000/svg" viewBox="0 0 512 512">
  <path d="M239.93 0a47.19 47.19 0 00-47.13 47.13V58a206.9 206.9 0 00-32.1 13.33l-7.7-7.7a47.13 47.13 0 00-66.66 0l-22.71 22.7c-18.16 18.14-18.67 48.02 0 66.67l7.7 7.7A206.76 206.76 0 0058 192.8H47.13A47.19 47.19 0 000 239.93v32.14a47.19 47.19 0 0047.13 47.13H58a206.72 206.72 0 0013.33 32.1l-7.7 7.7c-18.68 18.65-18.16 48.53 0 66.66l22.7 22.7c18.12 18.15 48 18.7 66.67.02l7.7-7.7A206.7 206.7 0 00192.8 454v10.87A47.19 47.19 0 00239.93 512h32.14a47.19 47.19 0 0047.13-47.13V454a206.9 206.9 0 0032.1-13.32l7.7 7.7a47.13 47.13 0 0066.66 0l22.71-22.71c18.16-18.14 18.67-48.02 0-66.67l-7.7-7.7A206.76 206.76 0 00454 319.2h10.87A47.19 47.19 0 00512 272.07v-32.14a47.19 47.19 0 00-47.13-47.13H454a206.72 206.72 0 00-13.33-32.1l7.7-7.7c18.68-18.65 18.16-48.53 0-66.66l-22.7-22.7c-18.12-18.15-48-18.7-66.67-.02l-7.7 7.7A206.7 206.7 0 00319.2 58V47.13A47.19 47.19 0 00272.07 0h-32.14zm0 30h32.14c9.45 0 17.13 7.69 17.13 17.13v22.15a15 15 0 0011.25 14.53 176.82 176.82 0 0145.84 19.02 15 15 0 0018.24-2.3l15.7-15.7a17.13 17.13 0 0124.22 0l22.72 22.73a17.13 17.13 0 010 24.23l-15.7 15.69a15 15 0 00-2.3 18.24 176.82 176.82 0 0119.03 45.83 15 15 0 0014.52 11.25h22.15c9.44 0 17.13 7.69 17.13 17.13v32.14c0 9.45-7.69 17.13-17.13 17.13h-22.15a15 15 0 00-14.52 11.25 176.79 176.79 0 01-19.03 45.83 15 15 0 002.3 18.25l15.7 15.7a17.13 17.13 0 010 24.22l-22.73 22.72a17.13 17.13 0 01-24.23 0l-15.68-15.7a15 15 0 00-18.25-2.3 176.8 176.8 0 01-45.83 19.03 15 15 0 00-11.25 14.52v22.15c0 9.44-7.69 17.13-17.13 17.13h-32.14a17.15 17.15 0 01-17.13-17.13v-22.15a15 15 0 00-11.25-14.52 176.82 176.82 0 01-45.83-19.03c-7.26-4.29-14.68-1.26-18.25 2.3l-15.7 15.7a17.13 17.13 0 01-24.22 0l-22.72-22.73a17.13 17.13 0 010-24.23l15.7-15.69a15 15 0 002.3-18.24 176.8 176.8 0 01-19.03-45.83 15 15 0 00-14.52-11.25H47.13A17.15 17.15 0 0130 272.07v-32.14c0-9.44 7.69-17.13 17.13-17.13h22.15a15 15 0 0014.53-11.25 176.79 176.79 0 0119.02-45.83 15 15 0 00-2.3-18.25l-15.7-15.7a17.13 17.13 0 010-24.22l22.73-22.72a17.13 17.13 0 0124.23 0l15.68 15.7a15 15 0 0018.25 2.3 176.8 176.8 0 0145.83-19.03 15 15 0 0011.25-14.52V47.13c0-9.44 7.69-17.13 17.14-17.13zM256 144.6c-61.43 0-111.4 49.97-111.4 111.4 0 61.43 49.97 111.4 111.4 111.4 61.43 0 111.4-49.97 111.4-111.4 0-61.43-49.97-111.4-111.4-111.4zm0 30c44.88 0 81.4 36.52 81.4 81.4s-36.52 81.4-81.4 81.4-81.4-36.52-81.4-81.4 36.52-81.4 81.4-81.4z"/>
</svg>
