<svg xmlns="http://www.w3.org/2000/svg" viewBox="0 0 512 512">
  <path d="M108.56 100.46c-40.2 0-72.91 32.7-72.91 72.9 0 20.6 8.59 39.21 22.36 52.48C23.55 244.05 0 280.27 0 321.9v24.3a16.2 16.2 0 1032.4 0v-24.3c0-39.93 30.92-72.77 70.07-75.89 2 .17 4.03.28 6.09.28 2.09 0 4.16-.11 6.2-.28a75.76 75.76 0 0164.53 48.3 108.22 108.22 0 00-31.85 76.74v24.3a16.2 16.2 0 1032.41 0v-24.3c0-39.94 30.9-72.77 70.05-75.89 2.01.17 4.04.28 6.1.28 2.06 0 4.08-.11 6.1-.28 15.11 1.2 29 6.84 40.35 15.6.76.76 1.6 1.44 2.52 2.03a76 76 0 0127.18 58.26v24.3a16.2 16.2 0 1032.4 0v-24.3c0-30.06-12.28-57.3-32.09-76.99A76.39 76.39 0 01397.24 246c2.05.17 4.11.28 6.2.28 2.05 0 4.08-.1 6.1-.28 39.15 3.12 70.06 35.96 70.06 75.9v24.3a16.2 16.2 0 1032.4 0v-24.3c0-41.63-23.55-77.84-58.01-96.06a72.69 72.69 0 0022.36-52.47c0-40.2-32.7-72.91-72.9-72.91-40.21 0-72.92 32.7-72.92 72.9 0 20.6 8.59 39.2 22.36 52.47a109 109 0 00-28.32 21.45 72.57 72.57 0 004.34-24.77c0-40.2-32.7-72.9-72.91-72.9-40.2 0-72.91 32.7-72.91 72.9 0 8.8 1.56 17.23 4.43 25.04a108.39 108.39 0 00-28.44-21.7 72.69 72.69 0 0022.39-52.48c0-40.2-32.7-72.91-72.91-72.91zm0 32.4a40.55 40.55 0 0140.5 40.5 40.56 40.56 0 01-34.99 40.13 109.02 109.02 0 00-11.12-.01 40.56 40.56 0 01-34.9-40.11 40.55 40.55 0 0140.5-40.5zm294.88 0a40.55 40.55 0 0140.5 40.5 40.56 40.56 0 01-34.89 40.12 109.8 109.8 0 00-11.13 0 40.56 40.56 0 01-34.98-40.11 40.55 40.55 0 0140.5-40.5zM256 182.01a40.55 40.55 0 0140.5 40.5 40.56 40.56 0 01-34.9 40.12 109.8 109.8 0 00-11.2 0 40.56 40.56 0 01-34.9-40.11A40.55 40.55 0 01256 182z"/>
</svg>
