<svg xmlns="http://www.w3.org/2000/svg" viewBox="0 0 512 512">
  <path d="M105 46c-24.81 0-45 20.19-45 45v45H45c-24.81 0-45 20.19-45 45v240c0 24.81 20.19 45 45 45h362c24.81 0 45-20.19 45-45v-45h15c24.81 0 45-20.19 45-45V91c0-24.81-20.19-45-45-45H105zm0 30h362c8.27 0 15 6.73 15 15v240c0 8.27-6.73 15-15 15h-15V181c0-24.81-20.19-45-45-45H90V91c0-8.27 6.73-15 15-15zm-60 90h28.1A60.22 60.22 0 0130 209.1V181c0-8.27 6.73-15 15-15zm58.74 0h244.52A90.22 90.22 0 00422 239.74v122.52A90.22 90.22 0 00348.26 436H103.74A90.22 90.22 0 0030 362.26V239.74A90.22 90.22 0 00103.74 166zm275.16 0H407c8.27 0 15 6.73 15 15v28.1a60.23 60.23 0 01-43.1-43.1zM225 196a15 15 0 00-15 15v15h-45a15 15 0 000 30h15v90h-15a15 15 0 000 30h45v15a15 15 0 0030 0v-15h15c38.78 0 59.41-46.1 33.5-75a44.81 44.81 0 0011.5-30c0-24.81-20.19-45-45-45h-15v-15a15 15 0 00-15-15zm-15 60h45c8.27 0 15 6.73 15 15s-6.73 15-15 15h-45v-30zm137 30a15 15 0 00-15 15 15 15 0 0015 15 15 15 0 0015-15 15 15 0 00-15-15zm-241 1.63a15 15 0 00-15 15 15 15 0 0015 15 15 15 0 0015-15 15 15 0 00-15-15zM210 316h45c8.27 0 15 6.73 15 15s-6.73 15-15 15h-45v-30zM30 392.9A60.23 60.23 0 0173.1 436H45c-8.27 0-15-6.73-15-15v-28.1zm392 0V421c0 8.27-6.73 15-15 15h-28.1a60.23 60.23 0 0143.1-43.1z"/>
</svg>
