<svg xmlns="http://www.w3.org/2000/svg" viewBox="0 -31 512 512">
  <path d="M15 0a15 15 0 100 30h77.97l54.15 243.71A45.07 45.07 0 00120 315c0 24.81 20.19 45 45 45h272a15 15 0 100-30H165c-8.27 0-15-6.73-15-15 0-8.26 6.7-14.98 14.96-15H437a15 15 0 0014.42-10.88l60-210A15 15 0 00497 60H130.37l-10.73-48.26A15 15 0 00105 0zm392 360c-24.81 0-45 20.19-45 45s20.19 45 45 45 45-20.19 45-45-20.19-45-45-45zm-212 0c-24.81 0-45 20.19-45 45s20.19 45 45 45 45-20.19 45-45-20.19-45-45-45zM137.03 90h340.08l-51.43 180H177.03zM195 390c8.27 0 15 6.73 15 15s-6.73 15-15 15-15-6.73-15-15 6.73-15 15-15zm212 0c8.27 0 15 6.73 15 15s-6.73 15-15 15-15-6.73-15-15 6.73-15 15-15z"/>
</svg>